<svg id="Favourites_Icons" data-name="Favourites Icons" xmlns="http://www.w3.org/2000/svg" width="17" height="15.907" viewBox="0 0 17 15.907">
  <g id="Union_1" data-name="Union 1" fill="none" stroke-linecap="round">
    <path d="M8.29,15.907,1.513,8.285a4.8,4.8,0,0,1-.574-.646L.9,7.6l0-.005A4.792,4.792,0,0,1,4.744,0,4.723,4.723,0,0,1,8.5,1.861,4.737,4.737,0,0,1,17,4.783a4.788,4.788,0,0,1-.833,2.709l.018.016-.121.128a4.794,4.794,0,0,1-.777.826l-7,7.444h0Z" stroke="none"/>
    <path d="M 8.331088066101074 12.94321346282959 L 13.83007144927979 7.092931270599365 L 13.91140079498291 7.006411075592041 L 14.00239086151123 6.930110931396484 C 14.17141151428223 6.788401126861572 14.3236608505249 6.626410961151123 14.45489120483398 6.448661327362061 L 14.48572635650635 6.406896591186523 L 14.51498126983643 6.364041328430176 C 14.83241081237793 5.899031162261963 15.00020122528076 5.352341175079346 15.00020122528076 4.7830810546875 C 15.00020122528076 3.248481273651123 13.76904106140137 2.000001192092896 12.25574111938477 2.000001192092896 C 11.40261077880859 2.000001192092896 10.6122407913208 2.392701148986816 10.08729076385498 3.077421188354492 L 8.500110626220703 5.147651195526123 L 6.912890911102295 3.077441215515137 C 6.387911319732666 2.392711162567139 5.597421169281006 2.000001192092896 4.744101047515869 2.000001192092896 C 3.231001138687134 2.000001192092896 2.000001192092896 3.248481273651123 2.000001192092896 4.7830810546875 C 2.000001192092896 5.378321170806885 2.182201147079468 5.945560932159424 2.526911020278931 6.423501014709473 L 2.536334037780762 6.43656587600708 L 2.546431064605713 6.450221061706543 C 2.646301031112671 6.585291385650635 2.758951187133789 6.711981296539307 2.881261110305786 6.826781272888184 L 2.947081089019775 6.888561248779297 L 3.007061004638672 6.956011295318604 L 8.331088066101074 12.94321346282959 M 8.290170669555664 15.90690135955811 L 8.289811134338379 15.9065408706665 L 1.512501120567322 8.285031318664551 C 1.30246114730835 8.087881088256836 1.110141038894653 7.871701240539551 0.9383010864257813 7.639301300048828 L 0.901991069316864 7.598481178283691 L 0.9047911167144775 7.593430995941162 C 0.3357411026954651 6.804440975189209 1.089477564164554e-06 5.833240985870361 1.089477564164554e-06 4.7830810546875 C 1.089477564164554e-06 2.14168119430542 2.124221086502075 1.156616235675756e-06 4.744101047515869 1.156616235675756e-06 C 6.27268123626709 1.156616235675756e-06 7.632380962371826 0.7288111448287964 8.500081062316895 1.860551118850708 C 9.367751121520996 0.7288111448287964 10.72737121582031 1.156616235675756e-06 12.25574111938477 1.156616235675756e-06 C 14.87598133087158 1.156616235675756e-06 17.00020027160645 2.14168119430542 17.00020027160645 4.7830810546875 C 17.00020027160645 5.788581371307373 16.69250106811523 6.721540927886963 16.16681098937988 7.491631031036377 L 16.18467140197754 7.508070945739746 L 16.06389045715332 7.636570930480957 C 15.83829116821289 7.942141056060791 15.57751083374023 8.219441413879395 15.28736114501953 8.462711334228516 L 8.290520668029785 15.9065408706665 L 8.290170669555664 15.90690135955811 Z" stroke="none" fill="currentColor"/>
  </g>
</svg>
