<svg xmlns="http://www.w3.org/2000/svg" width="150.679" height="19.896" viewBox="0 0 150.679 19.896">
  <g id="Group_27" data-name="Group 27" transform="translate(0 5.272)">
    <path id="Path_11" data-name="Path 11" d="M4.522,0V19.9A4.522,4.522,0,0,1,0,15.374V4.522A4.522,4.522,0,0,1,4.522,0Z" transform="translate(0 -5.272)" fill="#ff6b69"/>
    <path id="Path_10" data-name="Path 10" d="M0,0H18.087a4.522,4.522,0,0,1,4.522,4.522V15.374A4.522,4.522,0,0,1,18.087,19.9H0Z" transform="translate(3.617 -5.272)" fill="#7175d8"/>
    <path id="Path_13" data-name="Path 13" d="M16.468-45.084,10.623-29.147H6.741L.9-45.084H4.321L8.7-32.412l4.361-12.672Zm5.114,0v15.937h-3.2V-45.084Zm8.653,16.1a7.57,7.57,0,0,1-3-.571A4.93,4.93,0,0,1,25.121-31.2a4.328,4.328,0,0,1-.8-2.534h3.425a2.215,2.215,0,0,0,.7,1.553,2.467,2.467,0,0,0,1.724.571,2.652,2.652,0,0,0,1.758-.537,1.745,1.745,0,0,0,.639-1.4,1.622,1.622,0,0,0-.434-1.164,3.04,3.04,0,0,0-1.085-.719,17.947,17.947,0,0,0-1.792-.582,19.2,19.2,0,0,1-2.523-.9,4.419,4.419,0,0,1-1.667-1.347,3.839,3.839,0,0,1-.7-2.409,4.307,4.307,0,0,1,.708-2.466,4.5,4.5,0,0,1,1.986-1.61,7.227,7.227,0,0,1,2.923-.559,6.34,6.34,0,0,1,4.007,1.2,4.444,4.444,0,0,1,1.7,3.345H32.176a1.826,1.826,0,0,0-.7-1.359,2.624,2.624,0,0,0-1.724-.537,2.22,2.22,0,0,0-1.5.479,1.733,1.733,0,0,0-.559,1.393,1.44,1.44,0,0,0,.422,1.062,3.221,3.221,0,0,0,1.05.685q.628.263,1.77.605a18.59,18.59,0,0,1,2.534.913,4.551,4.551,0,0,1,1.69,1.37,3.805,3.805,0,0,1,.708,2.4,4.51,4.51,0,0,1-.662,2.375,4.674,4.674,0,0,1-1.941,1.747A6.62,6.62,0,0,1,30.235-28.987Zm11.553-16.1v9.864a3.382,3.382,0,0,0,.845,2.477,3.186,3.186,0,0,0,2.375.856,3.217,3.217,0,0,0,2.4-.856,3.382,3.382,0,0,0,.845-2.477v-9.864H51.47v9.841a6.353,6.353,0,0,1-.879,3.436,5.575,5.575,0,0,1-2.352,2.112,7.466,7.466,0,0,1-3.276.708,7.266,7.266,0,0,1-3.231-.708,5.389,5.389,0,0,1-2.295-2.112,6.553,6.553,0,0,1-.845-3.436v-9.841Zm22.535,12.9H57.977l-1.05,3.037H53.57L59.3-45.107h3.722l5.731,15.96H65.374Zm-.868-2.557L61.15-41.408l-2.306,6.667Zm10.64,3.06h5.251v2.534H70.9V-45.084h3.2Zm21.6-13.4L89.851-29.147H85.969L80.124-45.084h3.425l4.384,12.672,4.361-12.672Zm5.114,0v15.937h-3.2V-45.084Zm8.722,0a9.519,9.519,0,0,1,4.418.982,7.014,7.014,0,0,1,2.945,2.8,8.332,8.332,0,0,1,1.039,4.213A8.206,8.206,0,0,1,116.9-32.9a7.056,7.056,0,0,1-2.945,2.774,9.519,9.519,0,0,1-4.418.982h-5.571V-45.084Zm-.114,13.22a5.25,5.25,0,0,0,3.881-1.37,5.218,5.218,0,0,0,1.37-3.859,5.338,5.338,0,0,0-1.37-3.893,5.175,5.175,0,0,0-3.881-1.4h-2.26v10.526Z" transform="translate(32.744 41.714)" fill="#fff"/>
    <path id="Path_12" data-name="Path 12" d="M3.759.454a.9.9,0,0,1,1.568,0L8.963,6.779a.9.9,0,0,1-.784,1.355H.906A.9.9,0,0,1,.122,6.779Z" transform="translate(18.986 0.359) rotate(90)" fill="#5ecba1"/>
  </g>
</svg>
